<?xml version="1.0" standalone="no"?>
<!DOCTYPE svg PUBLIC "-//W3C//DTD SVG 20010904//EN"
 "http://www.w3.org/TR/2001/REC-SVG-20010904/DTD/svg10.dtd">
<svg version="1.0" xmlns="http://www.w3.org/2000/svg"
 width="1200.000000pt" height="1200.000000pt" viewBox="0 0 1200.000000 1200.000000"
 preserveAspectRatio="xMidYMid meet">

<g transform="translate(0.000000,1200.000000) scale(0.100000,-0.100000)"
fill="#000000" stroke="none">
<path d="M5882 11030 c-341 -62 -584 -341 -702 -809 -32 -127 -72 -410 -90
-641 -6 -74 -13 -153 -15 -175 -19 -170 -61 -919 -72 -1285 -17 -593 -8 -1604
22 -2475 8 -231 19 -654 25 -940 14 -763 20 -1015 24 -1060 2 -22 7 -96 10
-165 9 -167 50 -573 81 -795 89 -633 230 -1165 396 -1498 52 -103 114 -206
134 -219 5 -4 148 -8 317 -8 l307 0 30 37 c17 20 59 93 94 162 134 261 215
511 320 986 59 263 139 848 162 1175 3 47 8 103 10 125 12 103 26 568 35 1165
6 360 15 844 20 1075 13 557 13 1881 0 2270 -9 278 -42 911 -55 1040 -2 28 -7
79 -10 115 -10 132 -36 410 -56 580 -10 96 -22 198 -25 225 -22 208 -88 451
-168 620 -64 134 -110 201 -205 295 -134 133 -274 196 -455 205 -44 2 -105 0
-134 -5z"/>
</g>
</svg>
