<svg viewBox="0 0 200 200" xmlns="http://www.w3.org/2000/svg">
  <path fill="#000000" d="M35.9,-63.9C47.3,-55.5,58.1,-47.6,61,-37.1C63.9,-26.5,59,-13.2,50.8,-4.7C42.6,3.8,31.3,7.6,30.4,21.7C29.5,35.7,39.1,60,35.7,62.7C32.4,65.4,16.2,46.6,0.7,45.4C-14.9,44.3,-29.8,60.8,-40.8,62.5C-51.8,64.3,-59,51.2,-57.8,38.3C-56.6,25.4,-47.1,12.7,-47.3,-0.1C-47.4,-12.9,-57.2,-25.8,-55.1,-33C-53,-40.2,-39,-41.7,-27.8,-50.3C-16.6,-58.8,-8.3,-74.4,1.9,-77.8C12.2,-81.2,24.4,-72.3,35.9,-63.9Z" transform="translate(100 100)" />
</svg>