<svg viewBox="0 0 200 200" xmlns="http://www.w3.org/2000/svg">
          <path fill="#000000" d="M36.9,-62.8C46.5,-58.4,52,-45.8,57.9,-33.9C63.9,-22.1,70.3,-11.1,67.3,-1.8C64.2,7.6,51.7,15.1,46.5,28.1C41.2,41.1,43.1,59.5,36.5,70.5C30,81.6,15,85.4,4.5,77.7C-6,69.9,-12.1,50.7,-26.4,44C-40.6,37.4,-63.2,43.4,-73.4,38.2C-83.6,33,-81.5,16.5,-73.8,4.4C-66.1,-7.6,-52.9,-15.3,-43.6,-22C-34.2,-28.8,-28.8,-34.7,-22.2,-40.8C-15.6,-46.9,-7.8,-53.3,2.9,-58.4C13.7,-63.4,27.3,-67.2,36.9,-62.8Z" transform="translate(100 100)" />
        </svg>