<svg viewBox="0 0 200 200" xmlns="http://www.w3.org/2000/svg">
  <path fill="#000000" d="M31,-52.8C45,-45.6,64.4,-47,73.6,-39.7C82.8,-32.3,81.8,-16.2,74.2,-4.4C66.7,7.4,52.7,14.9,44.8,24.5C36.9,34.1,35,45.8,28.6,48.7C22.1,51.6,11.1,45.6,-0.8,46.9C-12.6,48.2,-25.1,56.8,-37.4,57.2C-49.6,57.7,-61.4,50,-69.2,39.1C-76.9,28.2,-80.7,14.1,-74.2,3.7C-67.8,-6.7,-51.2,-13.3,-44.8,-26.7C-38.5,-40,-42.4,-60.1,-36.6,-72.1C-30.9,-84.1,-15.4,-87.9,-3.5,-81.9C8.5,-75.8,17,-60,31,-52.8Z" transform="translate(100 100)" />
</svg>